<?xml version="1.0" encoding="utf-8"?>
<!-- Generator: Adobe Illustrator 22.1.0, SVG Export Plug-In . SVG Version: 6.00 Build 0)  -->
<svg version="1.1" id="Layer_1" xmlns="http://www.w3.org/2000/svg" xmlns:xlink="http://www.w3.org/1999/xlink" x="0px" y="0px"
	 viewBox="0 0 44 44.5" style="enable-background:new 0 0 44 44.5;" xml:space="preserve">
<style type="text/css">
	.st0{fill:#FFFFFF;}
</style>
<g>
	<path class="st0" d="M30,26.3c3.8,3.8,7.6,7.6,11.4,11.3c0.4,0.4,0.8,0.8,1.2,1.2c1.5,1.4,2.2,3,0.6,4.8c-1.2,1.4-3.1,1.2-4.8-0.5
		c-3.7-3.6-7.3-7.3-11-10.9c-0.6-0.6-1.2-1.1-1.7-1.7c-10.3,4.2-18.4,2.3-23.1-5.3c-4.3-6.9-3-15.7,3.1-21.1
		c5.9-5.3,14.9-5.5,21.1-0.6C33.5,8.9,34.8,17.3,30,26.3z M16.5,5C10.2,5,5,10.1,5,16.4c0,6.3,5.1,11.5,11.3,11.6
		C22.7,28.1,28,22.9,28,16.5C28,10.2,22.8,5,16.5,5z"/>
</g>
</svg>
